<svg xmlns="http://www.w3.org/2000/svg" viewBox="0 0 512 512">
  <defs>
    <linearGradient id="bg" x1="0%" y1="0%" x2="100%" y2="100%">
      <stop offset="0%" style="stop-color:#3b82f6"/>
      <stop offset="100%" style="stop-color:#1d4ed8"/>
    </linearGradient>
  </defs>
  <!-- Background -->
  <rect width="512" height="512" rx="96" fill="url(#bg)"/>
  <!-- Heart with plus -->
  <g fill="white">
    <!-- Heart shape -->
    <path d="M256 420c-8 0-15-3-21-9L108 284c-35-35-35-92 0-127 17-17 40-27 64-27 24 0 47 10 64 27l20 20 20-20c17-17 40-27 64-27 24 0 47 10 64 27 35 35 35 92 0 127L277 411c-6 6-13 9-21 9z" opacity="0.9"/>
    <!-- Plus sign -->
    <rect x="232" y="180" width="48" height="120" rx="8"/>
    <rect x="196" y="216" width="120" height="48" rx="8"/>
  </g>
  <!-- Document lines -->
  <g fill="white" opacity="0.6">
    <rect x="156" y="360" width="200" height="12" rx="6"/>
    <rect x="176" y="385" width="160" height="10" rx="5"/>
  </g>
</svg>
